# This file uses centimeters as units for non-parametric coordinates.

g default
v -0.058178 0.219436 -0.277613
v 0.058178 0.219436 -0.277613
v -0.058178 0.219436 0.111610
v 0.058178 0.219436 0.111610
v -0.058178 0.277613 0.161258
v 0.058178 0.277613 0.161258
v -0.058178 0.277613 -0.277613
v 0.058178 0.277613 -0.277613
v -0.058178 0.219436 0.227966
v 0.058178 0.219436 0.227966
v 0.058178 0.277613 0.277613
v -0.058178 0.277613 0.277613
v -0.058178 0.082638 -0.005194
v 0.058178 0.082638 -0.005194
v 0.058178 0.082638 0.111162
v -0.058178 0.082638 0.111162
v -0.058178 0.335791 -0.277613
v 0.058178 0.335791 -0.277613
v 0.058178 0.335791 0.111610
v -0.058178 0.335791 0.111610
v -0.058178 0.335791 0.227966
v 0.058178 0.335791 0.227966
v -0.058178 0.472589 -0.005194
v 0.058178 0.472589 -0.005194
v 0.058178 0.472589 0.111162
v -0.058178 0.472589 0.111162
vt 0.375000 0.000000
vt 0.625000 0.000000
vt 0.375000 0.250000
vt 0.625000 0.250000
vt 0.375000 0.375000
vt 0.625000 0.375000
vt 0.375000 0.875000
vt 0.625000 0.875000
vt 0.375000 1.000000
vt 0.625000 1.000000
vt 0.750000 0.000000
vt 0.750000 0.250000
vt 0.250000 0.000000
vt 0.250000 0.250000
vt 0.375000 0.250000
vt 0.625000 0.250000
vt 0.625000 0.375000
vt 0.375000 0.375000
vt 0.375000 0.250000
vt 0.625000 0.250000
vt 0.625000 0.250000
vt 0.375000 0.250000
vt 0.375000 0.000000
vt 0.625000 0.000000
vt 0.625000 0.250000
vt 0.375000 0.250000
vt 0.375000 0.250000
vt 0.625000 0.250000
vt 0.625000 0.375000
vt 0.375000 0.375000
vt 0.375000 0.875000
vt 0.625000 0.875000
vt 0.625000 1.000000
vt 0.375000 1.000000
vt 0.750000 0.000000
vt 0.750000 0.250000
vt 0.250000 0.000000
vt 0.250000 0.250000
vt 0.375000 0.250000
vt 0.625000 0.250000
vt 0.625000 0.250000
vt 0.375000 0.250000
vt 0.625000 0.375000
vt 0.375000 0.375000
vn 0.000000 -1.000000 0.000000
vn 0.000000 -1.000000 0.000000
vn 0.000000 -1.000000 0.000000
vn 0.000000 -1.000000 0.000000
vn 0.000000 -0.649282 0.760548
vn 0.000000 -0.649282 0.760547
vn 0.000000 -0.649135 0.760673
vn 0.000000 -0.649136 0.760673
vn 0.000000 0.000000 -1.000000
vn 0.000000 0.000000 -1.000000
vn 0.000000 0.000000 -1.000000
vn 0.000000 0.000000 -1.000000
vn 1.000000 0.000000 0.000000
vn 1.000000 -0.000000 0.000000
vn 1.000000 -0.000000 0.000000
vn 1.000000 -0.000000 0.000000
vn -1.000000 0.000000 0.000000
vn -1.000000 -0.000000 0.000000
vn -1.000000 0.000000 0.000000
vn -1.000000 0.000000 0.000000
vn 0.000000 -1.000000 0.000000
vn 0.000000 -1.000000 0.000000
vn 0.000000 -1.000000 0.000000
vn 0.000000 -1.000000 0.000000
vn 1.000000 0.000000 0.000000
vn 1.000000 0.000000 0.000000
vn 0.000000 1.000000 0.000000
vn 0.000000 1.000000 0.000000
vn 0.000000 1.000000 0.000000
vn 0.000000 1.000000 0.000000
vn -1.000000 0.000000 0.000000
vn -1.000000 0.000000 0.000000
vn 0.000000 0.649345 -0.760494
vn 0.000000 0.649345 -0.760494
vn 0.000000 0.649345 -0.760494
vn 0.000000 0.649345 -0.760494
vn 1.000000 -0.000000 0.000000
vn 1.000000 -0.000000 0.000000
vn 0.000000 -0.649345 0.760494
vn 0.000000 -0.649345 0.760494
vn -1.000000 -0.000000 0.000000
vn -1.000000 -0.000000 0.000000
vn 0.000000 1.000000 0.000000
vn 0.000000 1.000000 0.000000
vn 0.000000 1.000000 0.000000
vn 0.000000 1.000000 0.000000
vn 0.000000 0.649282 0.760548
vn 0.000000 0.649135 0.760673
vn 0.000000 0.649282 0.760548
vn 0.000000 0.649134 0.760674
vn 0.000000 0.000000 -1.000000
vn 0.000000 0.000000 -1.000000
vn 0.000000 0.000000 -1.000000
vn 0.000000 0.000000 -1.000000
vn 1.000000 0.000000 0.000000
vn 1.000000 0.000000 0.000000
vn 1.000000 0.000000 0.000000
vn 1.000000 0.000000 0.000000
vn -1.000000 0.000000 0.000000
vn -1.000000 0.000000 0.000000
vn -1.000000 0.000000 0.000000
vn -1.000000 0.000000 0.000000
vn 0.000000 1.000000 0.000000
vn 0.000000 1.000000 0.000000
vn 0.000000 1.000000 0.000000
vn 0.000000 1.000000 0.000000
vn 1.000000 0.000000 0.000000
vn 1.000000 0.000000 0.000000
vn 0.000000 -1.000000 0.000000
vn 0.000000 -1.000000 0.000000
vn 0.000000 -1.000000 0.000000
vn 0.000000 -1.000000 0.000000
vn -1.000000 0.000000 0.000000
vn -1.000000 0.000000 0.000000
vn 0.000000 -0.649345 -0.760494
vn 0.000000 -0.649345 -0.760494
vn 0.000000 -0.649345 -0.760494
vn 0.000000 -0.649345 -0.760494
vn 1.000000 0.000000 0.000000
vn 1.000000 0.000000 0.000000
vn 0.000000 0.649344 0.760494
vn 0.000000 0.649344 0.760494
vn -1.000000 0.000000 0.000000
vn -1.000000 0.000000 0.000000
s 1
g Left
f 1/1/1 2/2/2 3/3/3
f 3/3/3 2/2/2 4/4/4
s 2
f 9/15/5 10/16/6 12/18/7
f 12/18/7 10/16/6 11/17/8
s 3
f 7/7/9 8/8/10 1/9/11
f 1/9/11 8/8/10 2/10/12
s 4
f 2/2/13 8/11/14 4/4/15
f 4/4/15 8/11/14 6/12/16
s 5
f 1/1/17 3/3/18 7/13/19
f 7/13/19 3/3/18 5/14/20
s 6
f 13/19/21 14/20/22 16/22/23
f 16/22/23 14/20/22 15/21/24
s 4
f 4/4/15 6/6/16 10/16/25
f 10/16/25 6/6/16 11/17/26
s 7
f 6/6/27 5/5/28 11/17/29
s 8
f 11/17/29 5/5/28 12/18/30
s 5
f 3/3/18 9/15/31 5/5/20
f 5/5/20 9/15/31 12/18/32
s 9
f 3/3/33 4/4/34 13/19/35
f 13/19/35 4/4/34 14/20/36
s 4
f 10/16/25 15/21/37 4/4/15
f 4/4/15 15/21/37 14/20/38
s 2
f 10/16/6 9/15/5 15/21/39
f 15/21/39 9/15/5 16/22/40
s 5
f 9/15/31 3/3/18 16/22/41
f 16/22/41 3/3/18 13/19/42
s 10
f 17/23/43 20/26/44 18/24/45
f 18/24/45 20/26/44 19/25/46
s 11
f 21/27/47 12/30/48 22/28/49
f 22/28/49 12/30/48 11/29/50
s 12
f 7/31/51 17/34/52 8/32/53
f 8/32/53 17/34/52 18/33/54
s 13
f 18/24/55 19/25/56 8/35/57
f 8/35/57 19/25/56 6/36/58
s 14
f 5/38/59 20/26/60 7/37/61
f 7/37/61 20/26/60 17/23/62
s 15
f 23/39/63 26/42/64 24/40/65
f 24/40/65 26/42/64 25/41/66
s 13
f 19/25/56 22/28/67 6/43/58
f 6/43/58 22/28/67 11/29/68
s 8
f 6/43/69 11/29/70 5/44/71
s 7
f 5/44/71 11/29/70 12/30/72
s 14
f 12/30/73 21/27/74 5/44/59
f 5/44/59 21/27/74 20/26/60
s 16
f 20/26/75 23/39/76 19/25/77
f 19/25/77 23/39/76 24/40/78
s 13
f 24/40/79 25/41/80 19/25/56
f 19/25/56 25/41/80 22/28/67
s 11
f 22/28/49 25/41/81 21/27/47
f 21/27/47 25/41/81 26/42/82
s 14
f 21/27/74 26/42/83 20/26/60
f 20/26/60 26/42/83 23/39/84
