# This file uses centimeters as units for non-parametric coordinates.

g default
v -0.058178 0.361441 -0.184744
v -0.058178 0.419619 -0.169160
v -0.058178 0.462208 -0.126571
v -0.058178 0.477797 -0.068393
v -0.058178 0.462208 -0.010215
v -0.058178 0.419619 0.032374
v -0.058178 0.361441 0.047963
v 0.058178 0.361441 -0.184744
v 0.058178 0.419619 -0.169160
v 0.058178 0.462208 -0.126571
v 0.058178 0.477797 -0.068393
v 0.058178 0.462208 -0.010215
v 0.058178 0.419619 0.032374
v 0.058178 0.361441 0.047963
v 0.058178 0.361441 -0.301100
v 0.058178 0.477797 -0.269927
v 0.058178 0.562975 -0.184749
v 0.058178 0.594153 -0.068393
v 0.058178 0.562975 0.047963
v 0.058178 0.477797 0.133141
v 0.058178 0.361441 0.164319
v -0.058178 0.361441 -0.301100
v -0.058178 0.477797 -0.269927
v -0.058178 0.562975 -0.184749
v -0.058178 0.594153 -0.068393
v -0.058178 0.562975 0.047963
v -0.058178 0.477797 0.133141
v -0.058178 0.361441 0.164319
v -0.058178 0.000000 -0.184740
v 0.058178 0.000000 -0.184740
v -0.058178 0.165926 0.047946
v 0.058178 0.165926 0.047946
v -0.058178 0.000000 -0.242918
v 0.058178 0.000000 -0.242918
v -0.058178 0.049570 0.047946
v 0.058178 0.049570 0.047946
v 0.058178 -0.000077 0.106124
v -0.058178 -0.000077 0.106124
v -0.058178 0.282730 -0.088851
v 0.058178 0.282730 -0.088851
v 0.058178 0.166374 -0.088851
v -0.058178 0.166374 -0.088851
v -0.058178 0.000000 -0.301096
v 0.058178 0.000000 -0.301096
v 0.058178 0.165926 0.164302
v -0.058178 0.165926 0.164302
v -0.058178 0.049570 0.164302
v 0.058178 0.049570 0.164302
v -0.058178 0.282730 0.301100
v 0.058178 0.282730 0.301100
v 0.058178 0.166374 0.301100
v -0.058178 0.166374 0.301100
v 0.058178 0.361530 0.164302
v 0.058178 0.361530 0.047947
v -0.058178 0.361530 0.047947
v -0.058178 0.361530 0.164302
vt 0.000000 1.000000
vt 0.083333 1.000000
vt 0.166667 1.000000
vt 0.250000 1.000000
vt 0.333333 1.000000
vt 0.416667 1.000000
vt 0.500000 1.000000
vt 0.000000 0.750000
vt 0.083333 0.750000
vt 0.166667 0.750000
vt 0.250000 0.750000
vt 0.333333 0.750000
vt 0.416667 0.750000
vt 0.500000 0.750000
vt 0.000000 0.500000
vt 0.083333 0.500000
vt 0.166667 0.500000
vt 0.250000 0.500000
vt 0.333333 0.500000
vt 0.416667 0.500000
vt 0.500000 0.500000
vt 0.000000 0.250000
vt 0.083333 0.250000
vt 0.166667 0.250000
vt 0.250000 0.250000
vt 0.333333 0.250000
vt 0.416667 0.250000
vt 0.500000 0.250000
vt 0.000000 0.000000
vt 0.083333 0.000000
vt 0.166667 0.000000
vt 0.250000 0.000000
vt 0.333333 0.000000
vt 0.416667 0.000000
vt 0.500000 0.000000
vt 0.375000 0.000000
vt 0.625000 0.000000
vt 0.625000 0.108794
vt 0.375000 0.108794
vt 0.375000 0.250000
vt 0.625000 0.250000
vt 0.625000 0.375000
vt 0.375000 0.375000
vt 0.625000 0.875000
vt 0.625000 1.000000
vt 0.375000 1.000000
vt 0.250000 0.000000
vt 0.375000 0.250000
vt 0.625000 0.250000
vt 0.625000 0.250000
vt 0.375000 0.250000
vt 0.625000 0.250000
vt 0.375000 0.250000
vt 0.375000 0.000000
vt 0.375000 0.108794
vt 0.625000 0.108794
vt 0.625000 0.000000
vt 0.375000 0.250000
vt 0.375000 0.375000
vt 0.625000 0.375000
vt 0.625000 0.250000
vt 0.375000 0.875000
vt 0.375000 1.000000
vt 0.625000 1.000000
vt 0.750000 0.000000
vt 0.375000 0.250000
vt 0.375000 0.250000
vt 0.625000 0.250000
vt 0.625000 0.250000
vt 0.625000 0.250000
vt 0.375000 0.250000
vt 0.625000 0.183018
vt 0.625000 0.183018
vt 0.375000 0.183018
vt 0.375000 0.183018
vn 0.000000 -0.499972 0.866042
vn 0.000000 -0.037103 0.999311
vn 0.000000 -0.499971 0.866042
vn 0.000000 -0.037103 0.999312
vn 0.000000 -0.866025 0.500000
vn 0.000000 -0.866025 0.500000
vn 0.000000 -1.000000 0.000000
vn 0.000000 -1.000000 -0.000000
vn 0.000000 -0.866025 -0.500000
vn 0.000000 -0.866025 -0.500000
vn 0.000000 -0.500000 -0.866026
vn 0.000000 -0.500000 -0.866026
vn 0.000000 -0.258819 -0.965926
vn 0.000000 -0.258819 -0.965926
vn 1.000000 0.000000 0.000000
vn 1.000000 0.000000 0.000000
vn 1.000000 0.000000 0.000000
vn 1.000000 0.000000 0.000000
vn 1.000000 0.000000 0.000000
vn 1.000000 0.000000 0.000000
vn 1.000000 0.000000 0.000000
vn 1.000000 0.000000 0.000000
vn 1.000000 0.000000 0.000000
vn 1.000000 0.000000 0.000000
vn 1.000000 -0.000000 0.000000
vn 1.000000 -0.000000 0.000000
vn 1.000000 0.000000 0.000000
vn 1.000000 0.000000 0.000000
vn 0.000000 0.499986 -0.866033
vn 0.000000 0.065096 -0.997879
vn 0.000000 0.499986 -0.866033
vn 0.000000 0.065096 -0.997879
vn 0.000000 0.866025 -0.500000
vn 0.000000 0.866025 -0.500000
vn 0.000000 1.000000 -0.000000
vn 0.000000 1.000000 -0.000000
vn 0.000000 0.866025 0.500000
vn 0.000000 0.866025 0.500000
vn 0.000000 0.500000 0.866026
vn 0.000000 0.500000 0.866026
vn 0.000000 0.258819 0.965926
vn 0.000000 0.258819 0.965926
vn -1.000000 0.000000 0.000000
vn -1.000000 0.000000 0.000000
vn -1.000000 0.000000 0.000000
vn -1.000000 0.000000 0.000000
vn -1.000000 -0.000000 0.000000
vn -1.000000 0.000000 0.000000
vn -1.000000 0.000000 0.000000
vn -1.000000 0.000000 0.000000
vn -1.000000 -0.000000 0.000000
vn -1.000000 0.000000 0.000000
vn -1.000000 -0.000000 0.000000
vn -1.000000 0.000000 0.000000
vn -1.000000 -0.000000 0.000000
vn -1.000000 -0.000000 0.000000
vn 0.000000 0.000012 1.000000
vn 0.000000 0.000012 1.000000
vn 0.000000 -1.000000 0.000000
vn 0.000000 -1.000000 0.000000
vn 0.000000 -1.000000 0.000000
vn 0.000000 -1.000000 0.000000
vn 0.000000 -1.000000 0.000000
vn 0.000000 -1.000000 0.000000
vn 1.000000 -0.000000 0.000000
vn 1.000000 -0.000000 0.000000
vn 1.000000 -0.000000 0.000000
vn 1.000000 0.000000 0.000000
vn 1.000000 0.000000 0.000000
vn 0.000000 0.000001 -1.000000
vn 0.000000 0.000001 -1.000000
vn 0.000000 0.000001 -1.000000
vn 0.000000 0.000001 -1.000000
vn 1.000000 -0.000000 0.000000
vn 1.000000 0.000000 0.000000
vn 1.000000 -0.000000 0.000000
vn 0.000000 0.760494 0.649345
vn 0.000000 0.760494 0.649345
vn 0.000000 0.760494 0.649345
vn 0.000000 0.760494 0.649345
vn 1.000000 0.000000 0.000000
vn 1.000000 -0.000000 0.000000
vn 1.000000 -0.000000 0.000000
vn 0.000000 -0.000013 -1.000000
vn 0.000000 -0.000013 -1.000000
vn 0.000000 -0.760674 -0.649135
vn 0.000000 -0.760674 -0.649135
vn 0.000000 -0.760548 -0.649282
vn 0.000000 -0.760548 -0.649282
vn 0.000000 -0.760495 -0.649344
vn 0.000000 -0.760495 -0.649344
vn -1.000000 -0.000000 0.000000
vn -1.000000 -0.000000 0.000000
vn -1.000000 -0.000000 0.000000
vn -1.000000 0.000000 0.000000
vn -1.000000 0.000000 0.000000
vn 0.000000 0.000000 1.000000
vn 0.000000 0.000000 1.000000
vn 0.000000 0.000000 1.000000
vn 0.000000 0.000000 1.000000
vn -1.000000 -0.000000 0.000000
vn -1.000000 0.000000 0.000000
vn -1.000000 0.000000 0.000000
vn -1.000000 -0.000000 0.000000
vn -1.000000 -0.000000 0.000000
vn 0.000000 0.760495 -0.649344
vn 0.000000 0.760495 -0.649344
vn 0.000000 0.760495 -0.649344
vn 0.000000 0.760495 -0.649344
vn 0.000000 -0.760496 0.649343
vn 0.000000 -0.760496 0.649343
vn 0.000000 -0.760549 0.649281
vn 0.000000 -0.760549 0.649281
vn 0.000000 -0.760674 0.649134
vn 0.000000 -0.760674 0.649134
vn -1.000000 0.000000 0.000000
vn -1.000000 -0.000000 0.000000
vn -1.000000 0.000000 0.000000
vn -1.000000 0.000000 0.000000
vn 1.000000 0.000000 0.000000
vn 1.000000 0.000000 0.000000
vn 0.000000 0.000001 -1.000000
vn 0.000000 0.000001 -1.000000
vn 0.000000 0.000001 -1.000000
vn 0.000000 0.000001 -1.000000
vn -1.000000 0.000000 0.000000
vn -1.000000 0.000000 0.000000
vn 0.000000 0.000001 1.000000
vn 0.000000 0.000001 1.000000
vn 0.000000 0.000001 1.000000
vn 0.000000 0.000001 1.000000
vn 1.000000 0.000000 0.000000
vn 1.000000 0.000000 0.000000
vn 1.000000 0.000000 0.000000
s 1
g Uturn
f 2/2/1 1/1/2 9/9/3
f 9/9/3 1/1/2 8/8/4
f 3/3/5 2/2/1 10/10/6
f 10/10/6 2/2/1 9/9/3
f 4/4/7 3/3/5 11/11/8
f 11/11/8 3/3/5 10/10/6
f 5/5/9 4/4/7 12/12/10
f 12/12/10 4/4/7 11/11/8
f 6/6/11 5/5/9 13/13/12
f 13/13/12 5/5/9 12/12/10
f 7/7/13 6/6/11 14/14/14
f 14/14/14 6/6/11 13/13/12
s 2
f 9/9/15 8/8/16 16/16/17
f 16/16/17 8/8/16 15/15/18
f 10/10/19 9/9/15 17/17/20
f 17/17/20 9/9/15 16/16/17
f 11/11/21 10/10/19 18/18/22
f 18/18/22 10/10/19 17/17/20
f 12/12/23 11/11/21 19/19/24
f 19/19/24 11/11/21 18/18/22
f 13/13/25 12/12/23 20/20/26
f 20/20/26 12/12/23 19/19/24
f 14/14/27 13/13/25 21/21/28
f 21/21/28 13/13/25 20/20/26
s 3
f 16/16/29 15/15/30 23/23/31
f 23/23/31 15/15/30 22/22/32
f 17/17/33 16/16/29 24/24/34
f 24/24/34 16/16/29 23/23/31
f 18/18/35 17/17/33 25/25/36
f 25/25/36 17/17/33 24/24/34
f 19/19/37 18/18/35 26/26/38
f 26/26/38 18/18/35 25/25/36
f 20/20/39 19/19/37 27/27/40
f 27/27/40 19/19/37 26/26/38
f 21/21/41 20/20/39 28/28/42
f 28/28/42 20/20/39 27/27/40
s 4
f 23/23/43 22/22/44 2/30/45
f 2/30/45 22/22/44 1/29/46
f 24/24/47 23/23/43 3/31/48
f 3/31/48 23/23/43 2/30/45
f 25/25/49 24/24/47 4/32/50
f 4/32/50 24/24/47 3/31/48
f 26/26/51 25/25/49 5/33/52
f 5/33/52 25/25/49 4/32/50
f 27/27/53 26/26/51 6/34/54
f 6/34/54 26/26/51 5/33/52
f 28/28/55 27/27/53 7/35/56
f 7/35/56 27/27/53 6/34/54
s 1
f 29/36/57 30/37/58 1/39/2
f 1/39/2 30/37/58 8/38/4
s 5
f 30/45/59 29/46/60 34/44/61
f 29/46/60 33/62/62 34/44/61
f 34/44/61 33/62/62 44/64/63
f 33/62/62 43/63/64 44/64/63
s 6
f 15/56/65 8/38/66 44/57/67
f 44/57/67 8/38/66 34/65/68
f 8/38/66 30/37/69 34/65/68
s 7
f 39/48/70 40/49/71 42/51/72
f 42/51/72 40/49/71 41/50/73
s 8
f 37/42/74 32/52/75 45/70/76
s 9
f 31/53/77 32/52/78 39/48/79
f 39/48/79 32/52/78 40/49/80
s 8
f 37/42/74 36/41/81 32/52/75
f 36/41/81 41/50/82 32/52/75
f 41/50/82 40/49/83 32/52/75
s 3
f 43/54/84 22/55/32 44/57/85
f 44/57/85 22/55/32 15/56/30
s 10
f 37/60/86 38/43/87 36/41/88
f 38/43/87 35/40/89 36/41/88
f 36/41/88 35/40/89 41/50/90
f 35/40/89 42/51/91 41/50/90
s 11
f 1/39/92 22/55/93 29/36/94
f 29/36/94 22/55/93 33/47/95
f 22/55/93 43/54/96 33/47/95
s 12
f 49/66/97 52/67/98 50/69/99
f 50/69/99 52/67/98 51/68/100
s 13
f 38/59/101 31/53/102 35/40/103
f 35/40/103 31/53/102 42/51/104
f 31/53/102 39/48/105 42/51/104
s 14
f 46/71/106 49/66/107 45/70/108
f 45/70/108 49/66/107 50/69/109
s 15
f 51/68/110 52/67/111 48/61/112
f 52/67/111 47/58/113 48/61/112
f 48/61/112 47/58/113 37/60/114
f 47/58/113 38/43/115 37/60/114
s 13
f 38/59/101 47/58/116 46/71/117
f 47/58/116 52/67/118 46/71/117
f 52/67/118 49/66/119 46/71/117
s 8
f 32/52/75 54/73/120 45/70/76
f 45/70/76 54/73/120 53/72/121
s 17
f 55/74/122 54/73/123 31/53/124
f 31/53/124 54/73/123 32/52/125
s 13
f 31/53/102 46/71/117 55/74/126
f 55/74/126 46/71/117 56/75/127
s 18
f 53/72/128 56/75/129 45/70/130
f 45/70/130 56/75/129 46/71/131
s 8
f 37/42/74 45/70/76 48/61/132
f 48/61/132 45/70/76 51/68/133
f 45/70/76 50/69/134 51/68/133
s 13
f 38/59/101 46/71/117 31/53/102
